<svg width="338" height="158" viewBox="0 0 338 158" fill="none" xmlns="http://www.w3.org/2000/svg">
<path d="M209.259 149.457C208.93 145.018 208.713 140.579 208.485 136.142L208.327 132.821L208.193 129.492L208.084 126.166L207.993 122.839C207.939 120.621 207.755 118.402 207.635 116.182C207.577 115.073 207.552 113.965 207.577 112.857C207.603 111.749 207.678 110.643 207.791 109.54C208.02 107.317 208.364 105.108 208.82 102.921C209.053 101.819 209.316 100.719 209.629 99.619C209.937 98.5012 210.31 97.4021 210.744 96.3273L211.318 96.3431C211.693 97.4406 212.004 98.5588 212.25 99.6922C212.499 100.808 212.699 101.922 212.871 103.033C213.203 105.243 213.422 107.468 213.526 109.7C213.577 110.81 213.589 111.917 213.553 113.025C213.518 114.133 213.429 115.237 213.31 116.341C213.065 118.55 212.756 120.758 212.58 122.968L212.301 126.285L212.007 129.6L211.69 132.908L211.352 136.223C210.877 140.641 210.41 145.06 209.832 149.477L209.259 149.457Z" fill="white"/>
<path d="M198.193 140.496C197.811 137.594 197.542 134.694 197.263 131.792L197.065 129.616L196.891 127.44L196.745 125.264L196.614 123.088C196.535 121.64 196.325 120.188 196.177 118.736C196.104 118.013 196.073 117.287 196.084 116.56C196.1 115.845 196.159 115.132 196.26 114.424C196.463 112.963 196.781 111.52 197.21 110.109C197.433 109.391 197.682 108.675 197.981 107.959C198.282 107.217 198.643 106.501 199.059 105.817L199.633 105.832C200.014 106.537 200.338 107.27 200.602 108.026C200.865 108.754 201.077 109.484 201.263 110.202C201.622 111.631 201.866 113.087 201.995 114.554C202.06 115.278 202.082 116.004 202.06 116.73C202.037 117.455 201.971 118.178 201.862 118.894C201.643 120.337 201.36 121.775 201.21 123.217L200.97 125.381L200.713 127.543L200.43 129.705L200.131 131.867C199.706 134.75 199.291 137.63 198.765 140.51L198.193 140.496Z" fill="white"/>
<path d="M186.335 156.442C186.035 150.81 185.845 145.181 185.647 139.551L185.516 135.329L185.402 131.108L185.315 126.886L185.245 122.667C185.208 119.854 185.036 117.037 184.929 114.222C184.879 112.813 184.862 111.407 184.895 110.002C184.929 108.598 185.01 107.193 185.131 105.791C185.375 102.984 185.731 100.182 186.201 97.3836C186.442 95.983 186.711 94.5844 187.03 93.1878C187.348 91.7912 187.704 90.3926 188.169 89L188.743 89.0158C189.138 90.4322 189.403 91.8446 189.653 93.259C189.902 94.6734 190.088 96.0819 190.246 97.4924C190.568 100.313 190.772 103.131 190.859 105.945C190.901 107.354 190.909 108.76 190.859 110.165C190.81 111.569 190.723 112.974 190.596 114.376C190.337 117.181 190.013 119.984 189.823 122.791L189.534 127.001L189.218 131.211L188.875 135.42L188.515 139.628C188.011 145.24 187.526 150.85 186.911 156.458L186.335 156.442Z" fill="white"/>
<path d="M175.335 140.423C174.973 137.141 174.721 133.861 174.46 130.583L174.284 128.125L174.124 125.666L173.991 123.207L173.875 120.754C173.806 119.116 173.604 117.476 173.465 115.836C173.396 115.019 173.37 114.199 173.386 113.379C173.404 112.56 173.467 111.742 173.574 110.93C173.786 109.283 174.112 107.652 174.551 106.05C174.777 105.239 175.032 104.428 175.343 103.617C175.647 102.783 176.012 101.974 176.435 101.193L177.008 101.209C177.386 102.012 177.706 102.841 177.964 103.69C178.223 104.515 178.431 105.34 178.613 106.163C178.962 107.787 179.197 109.433 179.317 111.09C179.376 111.907 179.394 112.727 179.368 113.545C179.337 114.365 179.264 115.182 179.151 115.994C178.923 117.622 178.628 119.25 178.47 120.882L178.209 123.325L177.938 125.772L177.641 128.217L177.329 130.663C176.886 133.923 176.452 137.191 175.908 140.439L175.335 140.423Z" fill="white"/>
<path d="M163.677 146.557C163.361 142.031 163.157 137.509 162.941 132.987L162.799 129.594L162.674 126.204L162.575 122.813L162.492 119.425C162.447 117.163 162.267 114.9 162.152 112.639C162.099 111.508 162.077 110.378 162.107 109.251C162.136 108.123 162.213 106.996 162.33 105.87C162.566 103.606 162.914 101.355 163.375 99.1263C163.614 98.0047 163.879 96.8851 164.194 95.7634C164.505 94.6218 164.881 93.499 165.321 92.4005L165.893 92.4183C166.266 93.5376 166.574 94.6777 166.815 95.8327C167.062 96.9681 167.258 98.1036 167.428 99.2391C167.755 101.491 167.967 103.759 168.063 106.032C168.11 107.162 168.12 108.291 168.081 109.421C168.041 110.55 167.952 111.674 167.83 112.8C167.578 115.051 167.262 117.298 167.08 119.551L166.785 122.942L166.48 126.32L166.15 129.697L165.802 133.074C165.313 137.574 164.835 142.077 164.245 146.575L163.677 146.557Z" fill="white"/>
<path d="M152.726 138.008C152.33 135.315 152.063 132.627 151.776 129.939L151.579 127.921L151.401 125.905L151.248 123.889L151.114 121.874C151.033 120.532 150.817 119.185 150.669 117.84C150.594 117.172 150.56 116.499 150.568 115.826C150.582 115.154 150.639 114.483 150.738 113.818C150.939 112.461 151.254 111.123 151.678 109.819C151.899 109.154 152.146 108.489 152.443 107.824C152.746 107.136 153.105 106.475 153.517 105.846L154.091 105.86C154.472 106.511 154.799 107.192 155.068 107.896C155.324 108.56 155.546 109.237 155.733 109.923C156.094 111.248 156.342 112.6 156.475 113.967C156.542 114.635 156.566 115.307 156.546 115.979C156.52 116.651 156.454 117.322 156.348 117.986C156.13 119.322 155.85 120.657 155.703 121.994L155.468 124L155.216 126.006L154.94 128.01L154.645 130.014C154.227 132.686 153.818 135.355 153.3 138.027L152.726 138.008Z" fill="white"/>
<path d="M212.436 138.617C213.377 139.335 221.413 145.602 222.297 146.385C223.187 147.158 224.031 147.983 224.823 148.856C225.219 149.295 225.587 149.748 225.933 150.217C226.281 150.681 226.587 151.174 226.849 151.691C227.106 152.191 227.281 152.729 227.367 153.285C227.398 153.552 227.392 153.823 227.349 154.088C227.298 154.348 227.203 154.598 227.068 154.826C226.919 155.049 226.738 155.248 226.532 155.42C226.314 155.594 226.077 155.743 225.826 155.865C225.305 156.114 224.755 156.295 224.188 156.405C223.612 156.521 223.028 156.596 222.441 156.63C221.848 156.672 221.254 156.684 220.661 156.672C218.281 156.597 215.912 156.322 213.579 155.849C211.239 155.402 208.922 154.826 206.628 154.177C204.333 153.528 202.064 152.793 199.809 152.015C195.307 150.444 190.875 148.678 186.496 146.803C182.116 144.927 177.792 142.935 173.499 140.878C169.206 138.821 164.971 136.651 160.811 134.35C156.651 132.049 152.57 129.656 148.602 127.084C146.613 125.8 144.662 124.47 142.75 123.096C140.843 121.711 138.982 120.291 137.211 118.788C135.441 117.284 133.761 115.702 132.365 114.028C131.707 113.261 131.148 112.415 130.701 111.51C130.549 111.193 130.447 110.855 130.4 110.507C130.397 110.429 130.402 110.352 130.416 110.275C130.434 110.24 130.442 110.228 130.456 110.202C130.469 110.176 130.517 110.141 130.59 110.083C130.698 110.006 130.813 109.94 130.934 109.886C131.308 109.725 131.7 109.612 132.101 109.547C133.122 109.389 134.156 109.335 135.187 109.385C137.449 109.504 139.698 109.8 141.913 110.269C143.874 110.665 146.386 111.715 148.334 112.248L150.683 106.691C148.439 106.165 145.082 105.817 142.782 105.443C140.298 105.019 137.784 104.786 135.265 104.746C134.616 104.746 133.956 104.769 133.286 104.814C132.589 104.864 131.896 104.96 131.211 105.1C130.436 105.257 129.684 105.511 128.972 105.856C128.55 106.061 128.152 106.312 127.785 106.606C127.369 106.95 127.009 107.356 126.715 107.809C126.415 108.295 126.203 108.831 126.09 109.391C125.995 109.904 125.975 110.428 126.03 110.946C126.141 111.786 126.391 112.602 126.77 113.359C127.088 114.002 127.459 114.616 127.878 115.197C128.274 115.755 128.689 116.273 129.116 116.766C130.831 118.724 132.701 120.362 134.614 121.919C136.527 123.476 138.507 124.9 140.517 126.271C142.527 127.642 144.568 128.947 146.633 130.204C150.787 132.71 154.999 135.022 159.294 137.218C163.588 139.414 167.936 141.463 172.334 143.406C181.135 147.28 190.198 150.532 199.455 153.137C201.765 153.796 204.089 154.398 206.426 154.943C208.762 155.493 211.112 155.987 213.478 156.389C215.851 156.815 218.251 157.071 220.661 157.152C221.874 157.191 223.087 157.107 224.283 156.901C224.898 156.795 225.496 156.609 226.063 156.349C226.352 156.215 226.626 156.049 226.878 155.855C227.135 155.649 227.36 155.407 227.545 155.135C227.725 154.852 227.856 154.541 227.931 154.215C227.996 153.889 228.015 153.557 227.988 153.226C227.893 152.548 227.657 151.898 227.296 151.317C226.625 150.259 225.894 149.24 225.106 148.266C222.303 145.018 218.06 141.02 212.525 136.672" fill="white"/>
<path d="M180.407 7.03704C180.407 10.9235 177.257 14.0741 173.37 14.0741C169.484 14.0741 166.333 10.9235 166.333 7.03704C166.333 3.15059 169.484 0 173.37 0C177.257 0 180.407 3.15059 180.407 7.03704Z" fill="#096BAC"/>
<path d="M212.23 58.9272C212.638 58.9432 212.983 58.6247 212.992 58.2157C213.096 53.124 212.217 48.0575 210.402 43.2943C208.499 38.3003 205.605 33.7428 201.895 29.896C198.184 26.0492 193.734 22.9927 188.812 20.9101C183.89 18.8276 178.598 17.7622 173.254 17.778C167.909 17.7937 162.623 18.8903 157.714 21.0018C152.804 23.1133 148.372 26.196 144.685 30.0646C140.997 33.9331 138.13 38.5076 136.256 43.5128C134.469 48.2866 133.621 53.3582 133.754 58.4492C133.765 58.8581 134.112 59.1746 134.521 59.1562L135.442 59.1147C139.529 58.9307 142.603 55.4252 143.405 51.4137C143.726 49.8105 144.175 48.2317 144.751 46.6931C146.196 42.8335 148.407 39.3061 151.25 36.323C154.094 33.3399 157.511 30.9627 161.297 29.3345C165.083 27.7063 169.159 26.8607 173.28 26.8486C177.402 26.8365 181.483 27.658 185.278 29.2639C189.073 30.8697 192.505 33.2267 195.366 36.193C198.227 39.1593 200.458 42.6736 201.926 46.5246C202.511 48.0598 202.97 49.6359 203.3 51.2372C204.126 55.244 207.22 58.7313 211.308 58.8912L212.23 58.9272Z" fill="#096BAC"/>
<path d="M146.704 15.5556C140.407 18.5185 130.407 19.1358 125.963 19.2593L121.889 26.2963H222.259V18.8889C216.704 19.6296 204.265 18.4979 199.296 15.1852C191.519 10 184.482 8.8889 180.161 8.8889H166.333C157.074 9.62963 152.63 12.7669 146.704 15.5556Z" fill="#096BAC"/>
<path d="M113 14.8149C113 11.133 115.985 8.14819 119.667 8.14819C123.349 8.14819 126.333 11.133 126.333 14.8149V18.4445C126.333 25.4401 120.662 31.1112 113.667 31.1112C113.298 31.1112 113 30.8127 113 30.4445V14.8149Z" fill="#00357F"/>
<path d="M232.259 14.8149C232.259 11.133 229.275 8.14819 225.593 8.14819C221.911 8.14819 218.926 11.133 218.926 14.8149V18.4445C218.926 25.4401 224.597 31.1112 231.593 31.1112C231.961 31.1112 232.259 30.8127 232.259 30.4445V14.8149Z" fill="#00357F"/>
<path d="M117.895 3.70374H96.5412C95.7388 3.70374 95.5091 4.80148 96.2443 5.12311L106.027 9.40304C109.399 10.8782 113.331 10.1229 115.916 7.5036L118.422 4.96482C118.884 4.4968 118.552 3.70374 117.895 3.70374Z" fill="#00357F"/>
<path d="M223.08 3.70374H201.726C200.924 3.70374 200.694 4.80148 201.43 5.12311L211.679 9.60711C214.769 10.9593 218.374 10.267 220.744 7.86595L223.607 4.96482C224.069 4.4968 223.738 3.70374 223.08 3.70374Z" fill="#00357F"/>
<path d="M122.92 3.70374H144.274C145.076 3.70374 145.306 4.80148 144.57 5.12311L134.788 9.40304C131.416 10.8782 127.484 10.1229 124.899 7.5036L122.393 4.96482C121.931 4.4968 122.262 3.70374 122.92 3.70374Z" fill="#00357F"/>
<path d="M228.105 3.70374H249.459C250.261 3.70374 250.491 4.80148 249.756 5.12311L239.973 9.40304C236.601 10.8782 232.669 10.1229 230.084 7.5036L227.578 4.96482C227.116 4.4968 227.448 3.70374 228.105 3.70374Z" fill="#00357F"/>
<path d="M18 108.5H113V112.5L18 108.5Z" fill="white"/>
<path d="M333 108.5H238V112.5L333 108.5Z" fill="white"/>
<path d="M52.098 62.563C52.098 65.337 51.509 67.921 50.331 70.315C49.191 72.671 47.595 74.723 45.543 76.471C43.529 78.181 41.116 79.53 38.304 80.518C35.492 81.506 32.433 82 29.127 82H3.591V58.231H15.447V72.196H29.127C30.761 72.196 32.262 71.987 33.63 71.569C35.036 71.113 36.233 70.486 37.221 69.688C38.209 68.89 38.988 67.94 39.558 66.838C40.128 65.698 40.413 64.444 40.413 63.076C40.413 61.746 40.128 60.511 39.558 59.371C38.988 58.231 38.19 57.262 37.164 56.464C36.138 55.628 34.941 54.982 33.573 54.526C32.205 54.032 30.723 53.785 29.127 53.785H3.591L11.115 43.867H29.127C32.471 43.867 35.549 44.323 38.361 45.235C41.173 46.147 43.586 47.439 45.6 49.111C47.652 50.745 49.248 52.721 50.388 55.039C51.528 57.319 52.098 59.827 52.098 62.563ZM123.579 82H107.79L99.2971 71.911H81.1711V82H69.3721V62.506H102.546C104.37 62.506 105.909 62.126 107.163 61.366C108.417 60.606 109.044 59.561 109.044 58.231C109.044 56.749 108.474 55.647 107.334 54.925C106.194 54.165 104.598 53.785 102.546 53.785H69.3721L77.0671 43.867H101.577C103.743 43.867 105.985 44.076 108.303 44.494C110.621 44.874 112.73 45.577 114.63 46.603C116.53 47.629 118.088 49.016 119.304 50.764C120.558 52.512 121.185 54.754 121.185 57.49C121.185 58.972 120.957 60.378 120.501 61.708C120.045 63.038 119.38 64.235 118.506 65.299C117.67 66.363 116.625 67.275 115.371 68.035C114.155 68.757 112.768 69.27 111.21 69.574C111.856 70.068 112.578 70.695 113.376 71.455C114.174 72.215 115.238 73.26 116.568 74.59L123.579 82Z" fill="black"/>
<g clip-path="url(#clip0_183_475)">
<mask id="mask0_183_475" style="mask-type:luminance" maskUnits="userSpaceOnUse" x="149" y="35" width="53" height="53">
<path d="M149 35H202V88H149V35Z" fill="white"/>
<path d="M175.054 44.5767C183.866 50.5637 188.24 54.8995 188.24 58.0428C188.24 61.0842 186.569 63.5466 183.356 65.3466C182.468 65.846 181.477 64.8737 181.96 63.9767C182.79 62.4316 182.516 60.7009 181.02 58.6421C179.442 56.4711 177.168 54.8913 174.161 53.8965C173.957 53.8292 173.78 53.6994 173.655 53.5256C173.529 53.3517 173.462 53.1427 173.462 52.9283V45.4186C173.462 45.2334 173.512 45.0519 173.608 44.8933C173.704 44.7348 173.841 44.6053 174.004 44.5187C174.168 44.4322 174.352 44.3919 174.537 44.4021C174.722 44.4123 174.901 44.4726 175.054 44.5767ZM170.914 77.2981C167.305 77.2981 164.289 74.9681 164.289 71.9471C164.289 68.9261 167.305 66.5962 170.914 66.5962C174.522 66.5962 177.539 68.9261 177.539 71.9471C177.539 74.9681 174.522 77.2981 170.914 77.2981Z" fill="black"/>
<path d="M175.5 49.2693C176.041 49.2693 176.559 49.4841 176.942 49.8663C177.324 50.2486 177.539 50.7671 177.539 51.3077V71.6924C177.539 72.233 177.324 72.7515 176.942 73.1338C176.559 73.5161 176.041 73.7308 175.5 73.7308C174.959 73.7308 174.441 73.5161 174.059 73.1338C173.676 72.7515 173.462 72.233 173.462 71.6924V51.3077C173.462 50.7671 173.676 50.2486 174.059 49.8663C174.441 49.4841 174.959 49.2693 175.5 49.2693Z" fill="black"/>
</mask>
<g mask="url(#mask0_183_475)">
<path d="M175.5 88C190.136 88 202 76.1355 202 61.5C202 46.8645 190.136 35 175.5 35C160.864 35 149 46.8645 149 61.5C149 76.1355 160.864 88 175.5 88Z" fill="url(#paint0_linear_183_475)"/>
</g>
</g>
<path d="M268.237 82.627C267.477 82.627 266.717 82.494 265.957 82.228C265.235 82 264.418 81.449 263.506 80.575L240.136 59.599V82H229.42V50.365C229.42 49.111 229.591 48.028 229.933 47.116C230.313 46.204 230.788 45.463 231.358 44.893C231.966 44.323 232.65 43.905 233.41 43.639C234.208 43.373 235.025 43.24 235.861 43.24C236.583 43.24 237.305 43.373 238.027 43.639C238.787 43.867 239.642 44.418 240.592 45.292L263.962 66.268V43.867H274.735V75.445C274.735 76.699 274.545 77.782 274.165 78.694C273.823 79.606 273.348 80.366 272.74 80.974C272.17 81.544 271.486 81.962 270.688 82.228C269.89 82.494 269.073 82.627 268.237 82.627ZM337.382 72.196L329.801 82H293.093V43.867H337.268L329.63 53.785H304.949V58.345H335.159L328.376 67.009H304.949V72.196H337.382Z" fill="black"/>
<defs>
<linearGradient id="paint0_linear_183_475" x1="175.5" y1="35" x2="175.5" y2="88" gradientUnits="userSpaceOnUse">
<stop stop-color="white"/>
<stop offset="1" stop-color="white"/>
</linearGradient>
<clipPath id="clip0_183_475">
<rect width="53" height="53" fill="white" transform="translate(149 35)"/>
</clipPath>
</defs>
</svg>
