<svg width="154" height="150" viewBox="0 0 154 150" fill="none" xmlns="http://www.w3.org/2000/svg">
<rect width="153.55" height="150" rx="20" fill="white"/>
<g clip-path="url(#clip0_1578_523)">
<path d="M96.1573 83.9774C95.9023 80.5281 95.7333 77.0788 95.5567 73.631L95.4338 71.0502L95.3293 68.4632L95.2449 65.8793L95.1742 63.2939C95.1327 61.5708 94.9899 59.8461 94.8962 58.1215C94.8516 57.2591 94.8317 56.3984 94.8516 55.5376C94.8716 54.6768 94.93 53.8175 95.0175 52.9598C95.1955 51.2328 95.4621 49.5162 95.8163 47.8166C95.9975 46.9604 96.2018 46.1058 96.4445 45.2511C96.6839 44.3826 96.9731 43.5286 97.3108 42.6934L97.7562 42.7057C98.0472 43.5585 98.2888 44.4274 98.4797 45.308C98.6733 46.1749 98.8284 47.0403 98.962 47.9042C99.2201 49.621 99.3898 51.35 99.4705 53.0843C99.5104 53.9466 99.5196 54.8074 99.492 55.6682C99.4643 56.529 99.3952 57.3867 99.303 58.2444C99.1126 59.9614 98.8729 61.6768 98.7362 63.3938L98.5197 65.9716L98.2908 68.5478L98.045 71.1178L97.7824 73.6941C97.4137 77.1265 97.0512 80.5604 96.6027 83.9928L96.1573 83.9774Z" fill="#28AAE1"/>
<path d="M87.5648 77.0142C87.2683 74.7593 87.0594 72.5058 86.8428 70.2509L86.6892 68.56L86.554 66.8692L86.4404 65.1784L86.339 63.4875C86.2776 62.3623 86.1147 61.2341 85.9995 60.1059C85.9432 59.5441 85.9191 58.9795 85.9273 58.415C85.9401 57.8594 85.9857 57.3051 86.0641 56.7549C86.2218 55.6198 86.4683 54.4989 86.8013 53.4025C86.9749 52.8445 87.1685 52.288 87.4004 51.7316C87.6342 51.1551 87.9142 50.5984 88.2375 50.0669L88.683 50.0792C88.9788 50.6265 89.2305 51.1965 89.4356 51.7839C89.6399 52.3495 89.8043 52.9167 89.9486 53.4747C90.227 54.5851 90.4171 55.7159 90.517 56.8564C90.5678 57.4185 90.5847 57.9831 90.5677 58.5472C90.5494 59.1103 90.4981 59.6718 90.4141 60.2288C90.2436 61.3494 90.0239 62.4669 89.9072 63.5874L89.7213 65.269L89.5216 66.9491L89.302 68.6292L89.07 70.3093C88.7398 72.5489 88.4172 74.7869 88.0087 77.025L87.5648 77.0142Z" fill="#28AAE1"/>
<path d="M78.3578 89.4051C78.1244 85.0289 77.9769 80.6543 77.8233 76.2796L77.7219 72.9994L77.6328 69.7192L77.5652 66.439L77.5115 63.1603C77.4823 60.9745 77.3487 58.7856 77.2657 56.5983C77.2273 55.5039 77.2135 54.411 77.2396 53.3196C77.2657 52.2283 77.3287 51.1369 77.4224 50.0471C77.6118 47.8664 77.8888 45.6888 78.2534 43.5143C78.4408 42.426 78.6497 41.3393 78.897 40.2541C79.1443 39.1689 79.4208 38.0821 79.7817 37L80.2272 37.0123C80.5344 38.1129 80.7402 39.2104 80.9337 40.3094C81.1273 41.4085 81.2717 42.5029 81.3945 43.5989C81.6444 45.7908 81.8031 47.9802 81.8707 50.167C81.903 51.2614 81.9091 52.3543 81.8707 53.4457C81.8323 54.537 81.7647 55.6284 81.6664 56.7182C81.4652 58.8979 81.2133 61.076 81.0658 63.2571L80.8416 66.5281L80.5958 69.7991L80.3301 73.0701L80.0505 76.3396C79.6588 80.7004 79.2825 85.0597 78.8048 89.4174L78.3578 89.4051Z" fill="#28AAE1"/>
<path d="M69.816 76.9573C69.5349 74.4072 69.3398 71.8587 69.1371 69.3117L69.0004 67.401L68.876 65.4904L68.773 63.5797L68.6824 61.6737C68.6287 60.4009 68.472 59.1267 68.3645 57.8524C68.311 57.2175 68.2905 56.5803 68.303 55.9433C68.3172 55.3068 68.3659 54.6715 68.4489 54.0403C68.6132 52.7602 68.8668 51.493 69.2077 50.2482C69.3828 49.618 69.581 48.9878 69.8221 48.3576C70.0585 47.7101 70.3419 47.0807 70.67 46.4746L71.1155 46.4869C71.4092 47.1106 71.6571 47.7548 71.8574 48.4145C72.0586 49.0554 72.2199 49.6964 72.3612 50.3359C72.6325 51.5979 72.8152 52.8773 72.908 54.1648C72.9543 54.7996 72.9676 55.4363 72.9479 56.0724C72.9237 56.7092 72.8673 57.3443 72.779 57.9754C72.6023 59.2404 72.3735 60.5055 72.2506 61.7736L72.0478 63.6719L71.8374 65.5734L71.607 67.4733L71.3643 69.3731C71.0202 71.9063 70.6838 74.4457 70.2614 76.9696L69.816 76.9573Z" fill="#28AAE1"/>
<path d="M60.7642 81.7239C60.5185 78.207 60.3603 74.6931 60.1928 71.1793L60.0822 68.5431L59.9855 65.9085L59.9087 63.2738L59.8442 60.6407C59.8088 58.8838 59.6691 57.1253 59.58 55.3684C59.5385 54.4892 59.5216 53.6115 59.5446 52.7353C59.5677 51.8591 59.6276 50.983 59.7182 50.1084C59.901 48.3492 60.1717 46.6004 60.5292 44.8683C60.7151 43.9968 60.9209 43.1267 61.1651 42.2552C61.4068 41.3681 61.6991 40.4956 62.0407 39.6421L62.4846 39.6559C62.7743 40.5257 63.0133 41.4115 63.2004 42.309C63.3924 43.1913 63.5444 44.0736 63.6765 44.9559C63.9304 46.7059 64.095 48.4677 64.1696 50.2344C64.2065 51.1121 64.2141 51.9898 64.1834 52.8675C64.1527 53.7452 64.0836 54.6183 63.9883 55.4929C63.7933 57.2422 63.5475 58.9883 63.4062 60.7391L63.1773 63.3737L62.9408 65.9991L62.6843 68.623L62.4139 71.2469C62.0345 74.7438 61.6628 78.2423 61.2051 81.7378L60.7642 81.7239Z" fill="#28AAE1"/>
<path d="M52.2608 75.0809C51.9536 72.9889 51.7462 70.8999 51.5235 68.811L51.3699 67.2431L51.2317 65.6768L51.1134 64.1104L51.0089 62.5441C50.946 61.5019 50.7785 60.4552 50.6633 59.4099C50.6051 58.8904 50.5789 58.3678 50.585 57.8451C50.5961 57.3228 50.6403 56.8017 50.7171 56.2849C50.8735 55.2304 51.1175 54.1908 51.4467 53.1769C51.6187 52.6604 51.8107 52.1439 52.0412 51.6275C52.2761 51.0928 52.5551 50.5787 52.8752 50.0903L53.3207 50.1011C53.6163 50.6067 53.8701 51.1357 54.0795 51.6828C54.2782 52.1988 54.4505 52.7247 54.5956 53.2583C54.876 54.2875 55.0687 55.3385 55.1716 56.4002C55.2237 56.9196 55.2422 57.4417 55.2269 57.9635C55.207 58.4862 55.1557 59.0072 55.0733 59.5237C54.9043 60.5612 54.6862 61.5988 54.5725 62.6379L54.3897 64.1965L54.1947 65.7552L53.9796 67.3123L53.7507 68.8694C53.4266 70.946 53.1087 73.0196 52.7062 75.0963L52.2608 75.0809Z" fill="#28AAE1"/>
<path d="M98.6241 75.554C99.3553 76.112 105.595 80.9816 106.281 81.5903C106.972 82.1908 107.627 82.8319 108.243 83.5101C108.55 83.8514 108.836 84.2034 109.104 84.5677C109.374 84.9279 109.612 85.3111 109.816 85.7128C110.016 86.1014 110.152 86.5198 110.218 86.9518C110.242 87.1594 110.237 87.3694 110.204 87.5758C110.164 87.7779 110.091 87.9717 109.986 88.1492C109.87 88.3221 109.73 88.4774 109.57 88.6103C109.401 88.7459 109.217 88.8619 109.021 88.9562C108.617 89.1497 108.19 89.2907 107.75 89.3758C107.302 89.4659 106.849 89.5245 106.393 89.551C105.933 89.5833 105.472 89.5925 105.011 89.5833C103.163 89.5252 101.324 89.3113 99.512 88.9439C97.6948 88.5965 95.8962 88.1492 94.1144 87.645C92.3326 87.1408 90.5708 86.569 88.8197 85.9649C85.3237 84.7445 81.883 83.3718 78.4823 81.9146C75.0815 80.4574 71.7238 78.9095 68.3906 77.3109C65.0574 75.7123 61.7688 74.0261 58.5386 72.2384C55.3083 70.4507 52.1395 68.5908 49.0582 66.5926C47.514 65.5945 45.9995 64.5615 44.5147 63.4937C43.0339 62.4177 41.5885 61.3141 40.2138 60.1459C38.8391 58.9776 37.535 57.7479 36.4506 56.4475C35.9401 55.8517 35.5061 55.1944 35.1588 54.4908C35.0404 54.2449 34.9616 53.9819 34.9253 53.7115C34.9225 53.6512 34.9266 53.5909 34.9376 53.5316C34.9514 53.5039 34.9575 53.4947 34.9683 53.4747C34.979 53.4548 35.0159 53.4271 35.0727 53.3825C35.1565 53.3224 35.246 53.2709 35.34 53.2288C35.6302 53.1043 35.9345 53.016 36.2463 52.966C37.0387 52.8432 37.8415 52.801 38.6425 52.8399C40.3985 52.9325 42.1446 53.1623 43.8649 53.527C45.3871 53.8344 47.3379 54.6506 48.8509 55.0641L50.6741 50.7463C48.9323 50.3375 46.3256 50.0669 44.5392 49.7764C42.6103 49.447 40.659 49.2661 38.7024 49.2354C38.1985 49.2354 37.6865 49.2528 37.1663 49.2876C36.625 49.3269 36.0868 49.4014 35.555 49.5105C34.953 49.632 34.3688 49.8293 33.8163 50.0977C33.4883 50.2569 33.1792 50.4523 32.8947 50.6802C32.5719 50.9478 32.2917 51.2629 32.0637 51.6148C31.8308 51.9929 31.6665 52.4092 31.5783 52.8445C31.5049 53.2429 31.4893 53.6499 31.5322 54.0527C31.6183 54.7054 31.8125 55.3391 32.1067 55.928C32.3535 56.427 32.6412 56.9046 32.9669 57.356C33.2741 57.7894 33.5966 58.1922 33.9284 58.5749C35.2601 60.0967 36.7117 61.3694 38.197 62.5791C39.6823 63.7888 41.2199 64.8956 42.7805 65.9608C44.3411 67.026 45.9263 68.0405 47.5299 69.0166C50.7555 70.9641 54.0257 72.761 57.3604 74.4672C60.6951 76.1735 64.0713 77.7659 67.4859 79.2754C74.3201 82.2856 81.357 84.8122 88.5448 86.8365C90.3388 87.3489 92.1431 87.8167 93.9577 88.2399C95.7717 88.6672 97.5965 89.0515 99.4336 89.3635C101.276 89.6949 103.14 89.8932 105.011 89.9568C105.953 89.9868 106.895 89.9214 107.823 89.7616C108.301 89.6787 108.765 89.5346 109.206 89.3328C109.43 89.2281 109.642 89.0993 109.839 88.9485C110.038 88.7888 110.213 88.6002 110.356 88.389C110.496 88.1696 110.598 87.9279 110.656 87.6742C110.706 87.4214 110.721 87.1627 110.7 86.9056C110.627 86.3791 110.443 85.8738 110.163 85.4223C109.642 84.6002 109.074 83.8089 108.462 83.0521C106.286 80.5281 102.991 77.4216 98.6933 74.043" fill="#0A4886"/>
<path d="M51.7555 108.158H53.0027C53.7922 108.158 54.0979 108.575 53.9489 109.342L53.4789 111.763C53.3253 112.531 52.8645 112.946 52.0734 112.946H50.8246L51.7555 108.158ZM52.4113 108.842L51.7462 112.262H52.1917C52.4421 112.262 52.6172 112.139 52.6832 111.801L53.1671 109.311C53.2331 108.97 53.1072 108.85 52.8599 108.85L52.4113 108.842Z" fill="#28AAE1"/>
<path d="M60.8948 112.946C60.8764 112.823 60.8625 112.748 60.9378 112.357L61.0837 111.604C61.1697 111.16 61.0453 110.989 60.6859 110.989H60.4125L60.0331 112.94H59.2451L60.1759 108.152H61.3664C62.1835 108.152 62.4646 108.515 62.3218 109.252L62.2557 109.632C62.1589 110.124 61.9331 110.439 61.5507 110.596V110.61C61.9163 110.763 61.9762 111.123 61.8779 111.623L61.735 112.361C61.6833 112.55 61.6738 112.749 61.7073 112.943L60.8948 112.946ZM60.8318 108.842L60.5461 110.312H60.8533C61.1467 110.312 61.351 110.189 61.4247 109.806L61.5169 109.334C61.5829 108.993 61.4908 108.842 61.2097 108.842H60.8318Z" fill="#28AAE1"/>
<path d="M68.2662 109.306C68.4198 108.538 68.922 108.103 69.6977 108.103C70.4734 108.103 70.8098 108.541 70.6608 109.306L70.1785 111.796C70.0249 112.565 69.5211 113 68.7469 113C67.9728 113 67.6333 112.563 67.7823 111.796L68.2662 109.306ZM68.5611 111.844C68.495 112.187 68.6271 112.316 68.879 112.316C69.1309 112.316 69.3137 112.187 69.3798 111.844L69.8821 109.258C69.9481 108.917 69.816 108.787 69.5641 108.787C69.3122 108.787 69.1309 108.917 69.0634 109.258L68.5611 111.844Z" fill="#28AAE1"/>
<path d="M77.3487 109.479H77.3348L76.6605 112.948H75.9509L76.8817 108.16H77.8709L78.1105 111.025H78.1243L78.6819 108.16H79.3839L78.4546 112.948H77.6436L77.3487 109.479Z" fill="#28AAE1"/>
<path d="M85.8429 110.175H86.9258L86.7921 110.859H85.7092L85.4374 112.262H86.7998L86.6677 112.946H84.5173L85.4496 108.158H87.6001L87.468 108.842H86.104L85.8429 110.175Z" fill="#28AAE1"/>
<path d="M101.257 108.103C102.025 108.103 102.332 108.541 102.186 109.306L102.157 109.46H101.41L101.449 109.262C101.515 108.92 101.397 108.79 101.142 108.79C100.887 108.79 100.722 108.92 100.655 109.262C100.587 109.603 100.695 109.876 101.128 110.302C101.681 110.856 101.811 111.252 101.705 111.799C101.552 112.568 101.069 113.003 100.294 113.003C99.5181 113.003 99.2032 112.566 99.3522 111.799L99.409 111.506H100.156L100.088 111.847C100.022 112.19 100.156 112.308 100.407 112.308C100.659 112.308 100.841 112.185 100.907 111.847C100.973 111.509 100.867 111.232 100.434 110.808C99.8821 110.253 99.75 109.856 99.8575 109.309C100.011 108.541 100.49 108.103 101.257 108.103Z" fill="#28AAE1"/>
<path d="M108.221 112.946H107.432L108.363 108.158H109.152L108.753 110.21H109.65L110.048 108.158H110.851L109.929 112.946H109.126L109.524 110.894H108.628L108.221 112.946Z" fill="#28AAE1"/>
<path d="M116.631 109.306C116.785 108.538 117.288 108.103 118.064 108.103C118.84 108.103 119.176 108.541 119.027 109.306L118.543 111.796C118.39 112.565 117.887 113 117.112 113C116.336 113 116 112.563 116.147 111.796L116.631 109.306ZM116.927 111.844C116.861 112.187 116.993 112.316 117.245 112.316C117.497 112.316 117.678 112.187 117.746 111.844L118.248 109.258C118.314 108.917 118.181 108.787 117.93 108.787C117.68 108.787 117.496 108.917 117.43 109.258L116.927 111.844Z" fill="#28AAE1"/>
<path d="M126.577 110.401H126.563L125.795 112.952H124.712L125.079 108.158H125.847L125.524 111.938H125.54L126.646 108.163H127.406L127.054 111.966H127.07L128.209 108.163H128.898L127.409 112.951H126.362L126.577 110.401Z" fill="#28AAE1"/>
<path d="M135.859 108.103C136.627 108.103 136.934 108.541 136.78 109.306L136.751 109.46H136.006L136.045 109.262C136.111 108.92 135.992 108.79 135.737 108.79C135.483 108.79 135.317 108.92 135.251 109.262C135.185 109.603 135.291 109.876 135.724 110.302C136.275 110.856 136.406 111.252 136.3 111.799C136.146 112.568 135.665 113.003 134.89 113.003C134.114 113.003 133.797 112.566 133.946 111.799L134.005 111.506H134.756L134.69 111.847C134.624 112.19 134.758 112.308 135.008 112.308C135.258 112.308 135.441 112.185 135.507 111.847C135.573 111.509 135.469 111.232 135.036 110.808C134.483 110.253 134.352 109.856 134.458 109.309C134.612 108.541 135.091 108.103 135.859 108.103Z" fill="#28AAE1"/>
<path d="M20.4191 106.238C17.7249 106.238 15.7972 105.104 15 104.736V101.521C15.768 101.919 18.2149 103.265 20.3576 103.265C22.3775 103.265 23.3575 102.256 23.3575 101.306C23.3575 100.448 22.4697 99.8054 21.5511 99.2228L18.7356 97.5074C16.9907 96.4129 15.215 95.2094 15.215 92.5455C15.215 89.5128 17.8478 87.7974 20.9091 87.7974C22.5562 87.8088 24.179 88.1963 25.6538 88.9302V92.0245C24.9181 91.6571 22.8061 90.7071 20.9091 90.7071C19.3469 90.7071 18.5206 91.6294 18.5206 92.5517C18.5206 93.4401 19.4422 94.0888 20.3638 94.6345L23.1793 96.3807C24.4342 97.1492 26.6692 98.5557 26.6692 101.22C26.663 104.406 23.8552 106.238 20.4191 106.238Z" fill="#07509D"/>
<path d="M34.8362 105.717L31.8056 101.398L30.8564 102.348V105.717H27.7951V88.3169H30.8564V99.0076L34.8362 94.9035H38.2938L33.8547 99.3458L38.4167 105.717H34.8362Z" fill="#07509D"/>
<path d="M44.9371 105.717L42.4272 112.669H39.4888L42.0294 105.717L38.111 94.9033H41.1416L43.5593 102.254L45.9739 94.9033H49.0045L44.9371 105.717Z" fill="#07509D"/>
<path d="M51.4268 105.717V88.3169H61.9562V91.2282H54.7292V95.4907H60.1206V98.3651H54.7292V102.807H62.3509V105.717H51.4268Z" fill="#07509D"/>
<path d="M69.3951 105.104C68.5459 105.734 67.5137 106.067 66.4567 106.054C64.7671 106.054 63.4876 104.824 63.4876 102.256V88.3169H66.5474V102.163C66.5474 103.144 67.1909 103.419 67.6809 103.419C68.4152 103.419 69.1494 102.898 69.3951 102.746V105.104Z" fill="#07509D"/>
<path d="M72.9142 101.123C73.112 101.839 73.5401 102.47 74.1323 102.919C74.7245 103.367 75.4479 103.608 76.1905 103.604C78.1489 103.604 79.5575 102.868 80.0167 102.682V105.101C79.6788 105.285 78.516 106.051 75.8833 106.051C72.8834 106.051 69.8529 103.899 69.8529 100.322C69.8529 97.1064 72.3935 94.564 75.3641 94.564C78.1489 94.564 80.1688 96.6775 80.1688 99.6795V101.12L72.9142 101.123ZM75.3933 96.9557C74.1077 96.9557 73.2198 97.9672 73.0063 99.1922H77.4147C77.4147 98.1501 76.7097 96.9557 75.3933 96.9557Z" fill="#07509D"/>
<path d="M95.3509 105.717V98.9538C95.3509 97.7887 94.6474 97.2077 93.6981 97.2077C92.9024 97.2077 92.0085 97.758 91.4647 98.2837V105.728H88.4034V98.9646C88.4034 97.7995 87.6984 97.2184 86.7507 97.2184C85.9535 97.2184 85.061 97.7687 84.5158 98.2944V105.739H81.456V94.9035H84.3637L84.548 95.7612C85.4325 94.9808 86.5745 94.5559 87.7537 94.5684C89.1361 94.5684 90.2943 95.1495 90.9379 96.3761L91.5523 95.7612C91.9194 95.3939 92.9915 94.5669 94.7365 94.5669C96.9099 94.5669 98.4091 95.9764 98.4091 98.9784V105.717H95.3509Z" fill="#07509D"/>
<path d="M102.238 101.123C102.435 101.84 102.862 102.472 103.454 102.92C104.047 103.369 104.77 103.609 105.513 103.604C107.473 103.604 108.88 102.868 109.339 102.682V105.101C109.003 105.285 107.84 106.051 105.208 106.051C102.208 106.051 99.1771 103.899 99.1771 100.322C99.1771 97.1064 101.718 94.564 104.687 94.564C107.473 94.564 109.493 96.6775 109.493 99.6795V101.12L102.238 101.123ZM104.718 96.9557C103.432 96.9557 102.544 97.9672 102.331 99.1922H106.737C106.737 98.1501 106.032 96.9557 104.718 96.9557Z" fill="#07509D"/>
<path d="M118.155 105.717V99.1073C118.155 97.8207 117.387 97.209 116.319 97.209C115.339 97.209 114.268 98.0052 113.84 98.4033V105.725H110.779V94.9033H113.712L113.866 95.8256C114.794 94.9948 116.001 94.5457 117.245 94.5682C119.54 94.5682 121.224 96.0377 121.224 99.1934V105.718L118.155 105.717Z" fill="#07509D"/>
<path d="M127.552 106.054C125.471 106.054 123.664 104.921 123.664 101.275V97.415H121.645L122.161 94.9033H123.66V90.6455H126.721V94.9033H130.18L129.659 97.415H126.726V101.305C126.726 102.867 127.46 103.419 128.655 103.419C129.205 103.409 129.747 103.284 130.246 103.052V105.471C129.395 105.84 128.48 106.038 127.552 106.054Z" fill="#07509D"/>
<path d="M134.868 106.054C133.154 106.054 132.082 105.564 131.409 105.319V102.592C131.899 102.808 133.582 103.573 134.807 103.573C135.694 103.573 136.154 103.266 136.154 102.804C136.154 102.466 135.908 102.19 135.051 101.762C133.49 100.966 131.317 100.047 131.317 97.9333C131.317 95.7276 133.16 94.564 135.297 94.564C136.765 94.564 138.204 95.1158 138.664 95.3325V97.8749C138.143 97.6305 136.734 97.0172 135.45 97.0172C134.593 97.0172 134.134 97.3246 134.134 97.752C134.134 98.1501 134.47 98.396 135.174 98.7326C136.949 99.5904 139 100.423 139 102.654C139 104.95 136.949 106.054 134.868 106.054Z" fill="#07509D"/>
</g>
<defs>
<clipPath id="clip0_1578_523">
<rect width="124" height="76" fill="white" transform="translate(15 37)"/>
</clipPath>
</defs>
</svg>
