<svg width="124" height="76" viewBox="0 0 124 76" fill="none" xmlns="http://www.w3.org/2000/svg">
<g clip-path="url(#clip0_1596_404)">
<path d="M81.1573 46.9774C80.9023 43.5281 80.7333 40.0788 80.5567 36.631L80.4338 34.0502L80.3293 31.4632L80.2449 28.8793L80.1742 26.2939C80.1327 24.5708 79.9899 22.8461 79.8962 21.1215C79.8516 20.2591 79.8317 19.3984 79.8516 18.5376C79.8716 17.6768 79.93 16.8175 80.0175 15.9598C80.1955 14.2328 80.4621 12.5162 80.8163 10.8166C80.9975 9.96041 81.2018 9.10577 81.4445 8.25113C81.6839 7.38258 81.9731 6.52857 82.3108 5.69336L82.7562 5.70566C83.0472 6.55846 83.2888 7.42735 83.4797 8.30801C83.6733 9.17494 83.8284 10.0403 83.962 10.9042C84.2201 12.621 84.3898 14.35 84.4705 16.0843C84.5104 16.9466 84.5196 17.8074 84.492 18.6682C84.4643 19.529 84.3952 20.3867 84.303 21.2444C84.1126 22.9614 83.8729 24.6768 83.7362 26.3938L83.5197 28.9716L83.2908 31.5478L83.045 34.1178L82.7824 36.6941C82.4137 40.1265 82.0512 43.5604 81.6027 46.9928L81.1573 46.9774Z" fill="white"/>
<path d="M72.5647 40.0142C72.2683 37.7593 72.0594 35.5058 71.8428 33.2509L71.6892 31.56L71.554 29.8692L71.4404 28.1784L71.339 26.4875C71.2776 25.3623 71.1147 24.2341 70.9995 23.1059C70.9432 22.5441 70.9191 21.9795 70.9273 21.415C70.9401 20.8594 70.9857 20.3051 71.064 19.7549C71.2218 18.6198 71.4683 17.4989 71.8013 16.4025C71.9749 15.8445 72.1684 15.288 72.4004 14.7316C72.6342 14.1551 72.9142 13.5984 73.2375 13.0669L73.683 13.0792C73.9788 13.6265 74.2305 14.1965 74.4356 14.7839C74.6399 15.3495 74.8043 15.9167 74.9486 16.4747C75.227 17.5851 75.4171 18.7159 75.517 19.8564C75.5678 20.4185 75.5847 20.9831 75.5677 21.5472C75.5494 22.1103 75.4981 22.6718 75.4141 23.2288C75.2436 24.3494 75.0239 25.4669 74.9072 26.5874L74.7213 28.269L74.5216 29.9491L74.302 31.6292L74.07 33.3093C73.7398 35.5489 73.4172 37.7869 73.0086 40.025L72.5647 40.0142Z" fill="white"/>
<path d="M63.3578 52.4051C63.1244 48.0289 62.9769 43.6543 62.8233 39.2796L62.7219 35.9994L62.6328 32.7192L62.5653 29.439L62.5115 26.1603C62.4823 23.9745 62.3487 21.7856 62.2657 19.5983C62.2273 18.5039 62.2135 17.411 62.2396 16.3196C62.2657 15.2283 62.3287 14.1369 62.4224 13.0471C62.6118 10.8664 62.8888 8.68885 63.2534 6.51433C63.4408 5.42604 63.6497 4.3393 63.897 3.25409C64.1443 2.16888 64.4208 1.08213 64.7817 0L65.2272 0.012297C65.5344 1.11288 65.7402 2.21038 65.9337 3.30943C66.1273 4.40847 66.2717 5.5029 66.3946 6.59887C66.6444 8.79081 66.8031 10.9802 66.8707 13.167C66.903 14.2614 66.9091 15.3543 66.8707 16.4457C66.8323 17.537 66.7647 18.6284 66.6664 19.7182C66.4652 21.8979 66.2133 24.076 66.0658 26.2571L65.8416 29.5281L65.5958 32.7991L65.3301 36.0701L65.0505 39.3396C64.6588 43.7004 64.2825 48.0597 63.8048 52.4174L63.3578 52.4051Z" fill="white"/>
<path d="M54.816 39.9573C54.5349 37.4072 54.3398 34.8587 54.1371 32.3117L54.0004 30.401L53.8759 28.4904L53.773 26.5797L53.6824 24.6737C53.6286 23.4009 53.472 22.1267 53.3645 20.8524C53.311 20.2175 53.2905 19.5803 53.303 18.9433C53.3172 18.3068 53.3659 17.6715 53.4489 17.0403C53.6132 15.7602 53.8668 14.493 54.2077 13.2482C54.3828 12.618 54.581 11.9878 54.8221 11.3576C55.0585 10.7101 55.3419 10.0807 55.67 9.47461L56.1155 9.48691C56.4092 10.1106 56.6571 10.7548 56.8574 11.4145C57.0586 12.0554 57.2199 12.6964 57.3612 13.3359C57.6325 14.5979 57.8152 15.8773 57.908 17.1648C57.9543 17.7996 57.9676 18.4363 57.9479 19.0724C57.9237 19.7092 57.8673 20.3443 57.779 20.9754C57.6023 22.2404 57.3735 23.5055 57.2506 24.7736L57.0478 26.6719L56.8374 28.5734L56.607 30.4733L56.3643 32.3731C56.0202 34.9063 55.6838 37.4457 55.2614 39.9696L54.816 39.9573Z" fill="white"/>
<path d="M45.7642 44.7239C45.5185 41.207 45.3603 37.6931 45.1928 34.1793L45.0823 31.5431L44.9855 28.9085L44.9087 26.2738L44.8442 23.6407C44.8088 21.8838 44.6691 20.1253 44.58 18.3684C44.5385 17.4892 44.5216 16.6115 44.5446 15.7353C44.5677 14.8591 44.6276 13.983 44.7182 13.1084C44.901 11.3492 45.1717 9.60036 45.5292 7.86831C45.7151 6.99676 45.9209 6.12675 46.1651 5.2552C46.4068 4.36812 46.6991 3.49564 47.0407 2.64209L47.4846 2.65592C47.7743 3.52567 48.0133 4.41152 48.2004 5.309C48.3924 6.19131 48.5444 7.07362 48.6765 7.95593C48.9304 9.70589 49.095 11.4677 49.1696 13.2344C49.2065 14.1121 49.2141 14.9898 49.1834 15.8675C49.1527 16.7452 49.0836 17.6183 48.9884 18.4929C48.7933 20.2422 48.5475 21.9883 48.4062 23.7391L48.1773 26.3737L47.9408 28.9991L47.6843 31.623L47.4139 34.2469C47.0345 37.7438 46.6628 41.2423 46.2051 44.7378L45.7642 44.7239Z" fill="white"/>
<path d="M37.2608 38.0809C36.9536 35.9889 36.7462 33.8999 36.5235 31.811L36.3699 30.2431L36.2317 28.6768L36.1134 27.1104L36.0089 25.5441C35.946 24.5019 35.7785 23.4552 35.6633 22.4099C35.6051 21.8904 35.579 21.3678 35.585 20.8451C35.5961 20.3228 35.6403 19.8017 35.7171 19.2849C35.8735 18.2304 36.1175 17.1908 36.4467 16.1769C36.6187 15.6604 36.8108 15.1439 37.0412 14.6275C37.2761 14.0928 37.5551 13.5787 37.8752 13.0903L38.3207 13.1011C38.6163 13.6067 38.8701 14.1357 39.0795 14.6828C39.2782 15.1988 39.4505 15.7247 39.5956 16.2583C39.876 17.2875 40.0687 18.3385 40.1716 19.4002C40.2237 19.9196 40.2422 20.4417 40.2269 20.9635C40.207 21.4862 40.1557 22.0072 40.0733 22.5237C39.9043 23.5612 39.6862 24.5988 39.5725 25.6379L39.3897 27.1965L39.1947 28.7552L38.9796 30.3123L38.7507 31.8694C38.4266 33.946 38.1087 36.0196 37.7063 38.0963L37.2608 38.0809Z" fill="white"/>
<path d="M83.6241 38.554C84.3553 39.112 90.5946 43.9816 91.2812 44.5903C91.9724 45.1908 92.6274 45.8319 93.2427 46.5101C93.5499 46.8514 93.8356 47.2034 94.1044 47.5677C94.3744 47.9279 94.6124 48.3111 94.8156 48.7128C95.0157 49.1014 95.1516 49.5198 95.218 49.9518C95.2419 50.1594 95.2373 50.3694 95.2042 50.5758C95.1643 50.7779 95.0905 50.9717 94.9861 51.1492C94.8701 51.3221 94.73 51.4774 94.5698 51.6103C94.4007 51.7459 94.2167 51.8619 94.0215 51.9562C93.6171 52.1497 93.1897 52.2907 92.7496 52.3758C92.3022 52.4659 91.849 52.5245 91.3933 52.551C90.9325 52.5833 90.4717 52.5925 90.0109 52.5833C88.1632 52.5252 86.3237 52.3113 84.512 51.9439C82.6948 51.5965 80.8962 51.1492 79.1144 50.645C77.3326 50.1408 75.5708 49.569 73.8197 48.9649C70.3237 47.7445 66.883 46.3718 63.4823 44.9146C60.0815 43.4574 56.7238 41.9095 53.3906 40.3109C50.0574 38.7123 46.7688 37.0261 43.5386 35.2384C40.3083 33.4507 37.1395 31.5908 34.0582 29.5926C32.514 28.5945 30.9995 27.5615 29.5147 26.4937C28.0339 25.4177 26.5885 24.3141 25.2138 23.1459C23.8391 21.9776 22.535 20.7479 21.4506 19.4475C20.9401 18.8517 20.5061 18.1944 20.1588 17.4908C20.0404 17.2449 19.9616 16.9819 19.9253 16.7115C19.9225 16.6512 19.9266 16.5909 19.9376 16.5316C19.9514 16.5039 19.9575 16.4947 19.9683 16.4747C19.979 16.4548 20.0159 16.4271 20.0727 16.3825C20.1565 16.3224 20.246 16.2709 20.34 16.2288C20.6302 16.1043 20.9345 16.016 21.2463 15.966C22.0387 15.8432 22.8415 15.801 23.6425 15.8399C25.3985 15.9325 27.1446 16.1623 28.8649 16.527C30.3871 16.8344 32.3379 17.6506 33.8509 18.0641L35.6741 13.7463C33.9323 13.3375 31.3256 13.0669 29.5392 12.7764C27.6103 12.447 25.659 12.2661 23.7024 12.2354C23.1985 12.2354 22.6865 12.2528 22.1663 12.2876C21.625 12.3269 21.0868 12.4014 20.555 12.5105C19.953 12.632 19.3688 12.8293 18.8163 13.0977C18.4883 13.2569 18.1792 13.4523 17.8947 13.6802C17.5719 13.9478 17.2917 14.2629 17.0637 14.6148C16.8308 14.9929 16.6665 15.4092 16.5783 15.8445C16.5049 16.2429 16.4893 16.6499 16.5322 17.0527C16.6183 17.7054 16.8125 18.3391 17.1067 18.928C17.3535 19.427 17.6412 19.9046 17.9669 20.356C18.2741 20.7894 18.5966 21.1922 18.9284 21.5749C20.2601 23.0967 21.7117 24.3694 23.197 25.5791C24.6823 26.7888 26.2199 27.8956 27.7805 28.9608C29.3411 30.026 30.9263 31.0405 32.5299 32.0166C35.7555 33.9641 39.0257 35.761 42.3604 37.4672C45.6951 39.1735 49.0713 40.7659 52.4859 42.2754C59.3201 45.2856 66.357 47.8122 73.5448 49.8365C75.3388 50.3489 77.1431 50.8167 78.9577 51.2399C80.7717 51.6672 82.5965 52.0515 84.4336 52.3635C86.2761 52.6949 88.14 52.8932 90.0109 52.9568C90.9526 52.9868 91.8949 52.9214 92.8234 52.7616C93.3007 52.6787 93.7653 52.5346 94.2058 52.3328C94.4301 52.2281 94.6423 52.0993 94.8386 51.9485C95.0381 51.7888 95.2125 51.6002 95.3563 51.389C95.4963 51.1696 95.5976 50.9279 95.6558 50.6742C95.7064 50.4214 95.7214 50.1627 95.7003 49.9056C95.6266 49.3791 95.4434 48.8738 95.1627 48.4223C94.6419 47.6002 94.0741 46.8089 93.4624 46.0521C91.2858 43.5281 87.991 40.4216 83.6933 37.043" fill="#00357F"/>
<path d="M36.7555 71.1582H38.0027C38.7922 71.1582 39.0979 71.5748 38.9489 72.3418L38.4789 74.7628C38.3253 75.5313 37.8645 75.9463 37.0734 75.9463H35.8246L36.7555 71.1582ZM37.4113 71.8422L36.7462 75.2623H37.1917C37.4421 75.2623 37.6172 75.1394 37.6832 74.8012L38.1671 72.311C38.2331 71.9698 38.1072 71.8499 37.8599 71.8499L37.4113 71.8422Z" fill="white"/>
<path d="M45.8948 75.9461C45.8764 75.8232 45.8625 75.7479 45.9378 75.3574L46.0837 74.6042C46.1697 74.16 46.0453 73.9894 45.6859 73.9894H45.4125L45.0331 75.94H44.2451L45.1759 71.1519H46.3663C47.1835 71.1519 47.4646 71.5146 47.3218 72.2524L47.2557 72.6321C47.1589 73.124 46.9331 73.4391 46.5507 73.5959V73.6097C46.9162 73.7634 46.9762 74.1231 46.8778 74.6227L46.735 75.3605C46.6833 75.5503 46.6738 75.7492 46.7073 75.9431L45.8948 75.9461ZM45.8318 71.842L45.5461 73.3115H45.8533C46.1467 73.3115 46.351 73.1885 46.4247 72.8058L46.5169 72.3339C46.5829 71.9927 46.4908 71.842 46.2097 71.842H45.8318Z" fill="white"/>
<path d="M53.2662 72.3061C53.4198 71.5375 53.922 71.1025 54.6977 71.1025C55.4734 71.1025 55.8098 71.5406 55.6608 72.3061L55.1785 74.7962C55.0249 75.5648 54.5211 75.9998 53.7469 75.9998C52.9728 75.9998 52.6333 75.5633 52.7823 74.7962L53.2662 72.3061ZM53.5611 74.8439C53.495 75.1867 53.6271 75.3158 53.879 75.3158C54.1309 75.3158 54.3137 75.1867 54.3798 74.8439L54.882 72.2585C54.9481 71.9172 54.816 71.7866 54.5641 71.7866C54.3122 71.7866 54.1309 71.9172 54.0634 72.2585L53.5611 74.8439Z" fill="white"/>
<path d="M62.3487 72.4785H62.3348L61.6605 75.9478H60.9509L61.8817 71.1597H62.8709L63.1105 74.0249H63.1244L63.6819 71.1597H64.3839L63.4546 75.9478H62.6436L62.3487 72.4785Z" fill="white"/>
<path d="M70.8429 73.1749H71.9258L71.7921 73.8589H70.7092L70.4374 75.2623H71.7998L71.6677 75.9463H69.5173L70.4496 71.1582H72.6001L72.468 71.8422H71.104L70.8429 73.1749Z" fill="white"/>
<path d="M86.2569 71.1025C87.0249 71.1025 87.3321 71.5406 87.1862 72.3061L87.157 72.4598H86.4105L86.4489 72.2615C86.5149 71.9203 86.3966 71.7896 86.1416 71.7896C85.8867 71.7896 85.7223 71.9203 85.6547 72.2615C85.5871 72.6028 85.6947 72.8764 86.1278 73.3022C86.6808 73.8555 86.8114 74.2521 86.7054 74.7993C86.5518 75.5679 86.0695 76.0029 85.2938 76.0029C84.5181 76.0029 84.2032 75.5663 84.3522 74.7993L84.409 74.5057H85.1555L85.0879 74.847C85.0219 75.1898 85.1555 75.3081 85.4074 75.3081C85.6593 75.3081 85.8406 75.1851 85.9066 74.847C85.9727 74.5088 85.8667 74.2321 85.4335 73.8079C84.8821 73.253 84.75 72.8564 84.8575 72.3092C85.0111 71.5406 85.4904 71.1025 86.2569 71.1025Z" fill="white"/>
<path d="M93.2212 75.9463H92.4317L93.3625 71.1582H94.152L93.7527 73.2103H94.6497L95.0475 71.1582H95.8509L94.9292 75.9463H94.1259L94.5237 73.8943H93.6282L93.2212 75.9463Z" fill="white"/>
<path d="M101.631 72.3061C101.785 71.5375 102.288 71.1025 103.064 71.1025C103.84 71.1025 104.176 71.5406 104.027 72.3061L103.543 74.7962C103.39 75.5648 102.887 75.9998 102.112 75.9998C101.336 75.9998 101 75.5633 101.147 74.7962L101.631 72.3061ZM101.927 74.8439C101.861 75.1867 101.993 75.3158 102.245 75.3158C102.497 75.3158 102.678 75.1867 102.746 74.8439L103.248 72.2585C103.314 71.9172 103.181 71.7866 102.93 71.7866C102.68 71.7866 102.496 71.9172 102.43 72.2585L101.927 74.8439Z" fill="white"/>
<path d="M111.577 73.4009H111.563L110.795 75.9525H109.712L110.079 71.1582H110.847L110.524 74.938H110.54L111.646 71.1628H112.406L112.054 74.9657H112.07L113.209 71.1628H113.898L112.409 75.951H111.362L111.577 73.4009Z" fill="white"/>
<path d="M120.859 71.1025C121.627 71.1025 121.934 71.5406 121.78 72.3061L121.751 72.4598H121.006L121.045 72.2615C121.111 71.9203 120.992 71.7896 120.737 71.7896C120.483 71.7896 120.317 71.9203 120.251 72.2615C120.185 72.6028 120.29 72.8764 120.724 73.3022C121.275 73.8555 121.406 74.2521 121.3 74.7993C121.146 75.5679 120.665 76.0029 119.89 76.0029C119.114 76.0029 118.797 75.5663 118.946 74.7993L119.005 74.5057H119.756L119.69 74.847C119.624 75.1898 119.757 75.3081 120.008 75.3081C120.258 75.3081 120.441 75.1851 120.507 74.847C120.573 74.5088 120.469 74.2321 120.036 73.8079C119.483 73.253 119.352 72.8564 119.458 72.3092C119.612 71.5406 120.091 71.1025 120.859 71.1025Z" fill="white"/>
<path d="M5.41909 69.2382C2.7249 69.2382 0.797195 68.1038 0 67.7365V64.5208C0.768011 64.9189 3.2149 66.2654 5.35765 66.2654C7.37751 66.2654 8.3575 65.2555 8.3575 64.3056C8.3575 63.4479 7.46968 62.8054 6.55113 62.2228L3.73561 60.5074C1.99068 59.4129 0.215043 58.2094 0.215043 55.5455C0.215043 52.5128 2.84779 50.7974 5.90908 50.7974C7.5562 50.8088 9.17899 51.1963 10.6538 51.9302V55.0245C9.91809 54.6571 7.80606 53.7071 5.90908 53.7071C4.34694 53.7071 3.52056 54.6294 3.52056 55.5517C3.52056 56.4401 4.44218 57.0888 5.36379 57.6345L8.17932 59.3807C9.43425 60.1492 11.6692 61.5557 11.6692 64.2195C11.663 67.406 8.85517 69.2382 5.41909 69.2382Z" fill="#00357F"/>
<path d="M19.8362 68.7171L16.8056 64.3978L15.8564 65.3478V68.7171H12.7951V51.3169H15.8564V62.0076L19.8362 57.9035H23.2938L18.8547 62.3458L23.4167 68.7171H19.8362Z" fill="#00357F"/>
<path d="M29.9371 68.717L27.4272 75.6694H24.4888L27.0294 68.717L23.111 57.9033H26.1416L28.5593 65.2538L30.9739 57.9033H34.0045L29.9371 68.717Z" fill="#00357F"/>
<path d="M36.4268 68.7171V51.3169H46.9562V54.2282H39.7292V58.4907H45.1206V61.3651H39.7292V65.8074H47.3509V68.7171H36.4268Z" fill="#00357F"/>
<path d="M54.3951 68.1038C53.5459 68.7337 52.5137 69.0674 51.4567 69.0538C49.7671 69.0538 48.4876 67.8241 48.4876 65.2555V51.3169H51.5474V65.1633C51.5474 66.144 52.1909 66.4191 52.6809 66.4191C53.4152 66.4191 54.1494 65.8981 54.3951 65.7459V68.1038Z" fill="#00357F"/>
<path d="M57.9142 64.1229C58.112 64.8392 58.5401 65.4704 59.1323 65.9188C59.7245 66.3673 60.4479 66.608 61.1905 66.6038C63.1489 66.6038 64.5575 65.8675 65.0167 65.6815V68.1009C64.6788 68.2854 63.516 69.0509 60.8833 69.0509C57.8834 69.0509 54.8529 66.8989 54.8529 63.322C54.8529 60.1064 57.3935 57.564 60.3641 57.564C63.1489 57.564 65.1688 59.6775 65.1688 62.6795V64.1198L57.9142 64.1229ZM60.3933 59.9557C59.1077 59.9557 58.2198 60.9672 58.0063 62.1922H62.4147C62.4147 61.1501 61.7097 59.9557 60.3933 59.9557Z" fill="#00357F"/>
<path d="M80.3509 68.7172V61.9538C80.3509 60.7887 79.6474 60.2077 78.6981 60.2077C77.9024 60.2077 77.0085 60.758 76.4647 61.2837V68.728H73.4034V61.9646C73.4034 60.7995 72.6984 60.2184 71.7507 60.2184C70.9535 60.2184 70.061 60.7687 69.5158 61.2944V68.7387H66.456V57.9035H69.3637L69.548 58.7612C70.4325 57.9808 71.5745 57.5559 72.7537 57.5684C74.1361 57.5684 75.2943 58.1495 75.9379 59.3761L76.5523 58.7612C76.9194 58.3939 77.9915 57.5669 79.7364 57.5669C81.9099 57.5669 83.4091 58.9764 83.4091 61.9784V68.7172H80.3509Z" fill="#00357F"/>
<path d="M87.2384 64.1229C87.4347 64.8397 87.8622 65.4716 88.4545 65.9203C89.0467 66.3689 89.7704 66.6092 90.5132 66.6038C92.4731 66.6038 93.8802 65.8675 94.3394 65.6815V68.1009C94.003 68.2854 92.8403 69.0509 90.2075 69.0509C87.2077 69.0509 84.1771 66.8989 84.1771 63.322C84.1771 60.1064 86.7177 57.564 89.6868 57.564C92.4731 57.564 94.493 59.6775 94.493 62.6795V64.1198L87.2384 64.1229ZM89.7175 59.9557C88.4319 59.9557 87.5441 60.9672 87.3306 62.1922H91.7374C91.7374 61.1501 91.0324 59.9557 89.7175 59.9557Z" fill="#00357F"/>
<path d="M103.155 68.7169V62.1073C103.155 60.8207 102.387 60.209 101.319 60.209C100.339 60.209 99.2685 61.0052 98.8399 61.4033V68.7246H95.7787V57.9033H98.7125L98.8661 58.8256C99.7936 57.9948 101.001 57.5457 102.245 57.5682C104.54 57.5682 106.224 59.0377 106.224 62.1934V68.7185L103.155 68.7169Z" fill="#00357F"/>
<path d="M112.552 69.0536C110.471 69.0536 108.664 67.9208 108.664 64.2747V60.415H106.645L107.161 57.9033H108.66V53.6455H111.721V57.9033H115.18L114.659 60.415H111.726V64.3055C111.726 65.8672 112.46 66.419 113.655 66.419C114.205 66.4093 114.747 66.2841 115.246 66.0516V68.4711C114.395 68.8404 113.48 69.0383 112.552 69.0536Z" fill="#00357F"/>
<path d="M119.868 69.054C118.154 69.054 117.082 68.5636 116.409 68.3192V65.5924C116.899 65.8076 118.582 66.573 119.807 66.573C120.694 66.573 121.154 66.2656 121.154 65.8045C121.154 65.4663 120.908 65.1896 120.051 64.7623C118.49 63.9661 116.317 63.0469 116.317 60.9333C116.317 58.7276 118.16 57.564 120.297 57.564C121.765 57.564 123.204 58.1158 123.664 58.3325V60.8749C123.143 60.6305 121.734 60.0172 120.45 60.0172C119.593 60.0172 119.134 60.3246 119.134 60.752C119.134 61.1501 119.47 61.396 120.174 61.7326C121.949 62.5904 124 63.4235 124 65.6538C124 67.9503 121.949 69.054 119.868 69.054Z" fill="#00357F"/>
</g>
<defs>
<clipPath id="clip0_1596_404">
<rect width="124" height="76" fill="white"/>
</clipPath>
</defs>
</svg>
