<svg width="25" height="24" viewBox="0 0 25 24" fill="none" xmlns="http://www.w3.org/2000/svg">
<path d="M12.0688 7.33325C9.46877 7.33325 7.4021 9.39992 7.4021 11.9999C7.4021 14.5999 9.46877 16.6666 12.0688 16.6666C14.6688 16.6666 16.7354 14.5999 16.7354 11.9999C16.7354 9.39992 14.6688 7.33325 12.0688 7.33325ZM12.0688 15.3333C10.2021 15.3333 8.73543 13.8666 8.73543 11.9999C8.73543 10.1333 10.2021 8.66659 12.0688 8.66659C13.9354 8.66659 15.4021 10.1333 15.4021 11.9999C15.4021 13.8666 13.9354 15.3333 12.0688 15.3333Z" />
<path d="M23.1 9.525L21 8.85L20.55 7.725L21.6 5.775C21.825 5.325 21.75 4.725 21.375 4.35L19.575 2.55C19.2 2.175 18.6 2.1 18.15 2.325L16.2 3.375L15.075 2.925L14.4 0.825C14.25 0.375 13.8 0 13.275 0H10.725C10.2 0 9.75 0.375 9.675 0.9L9 3C8.55 3.075 8.175 3.225 7.8 3.45L5.85 2.4C5.4 2.175 4.8 2.25 4.425 2.625L2.625 4.425C2.25 4.8 2.175 5.4 2.4 5.85L3.375 7.725C3.225 8.1 3.075 8.55 2.925 8.925L0.825 9.6C0.375 9.75 0 10.2 0 10.725V13.275C0 13.8 0.375 14.25 0.9 14.4L3 15.075L3.45 16.2L2.4 18.15C2.175 18.6 2.25 19.2 2.625 19.575L4.425 21.375C4.8 21.75 5.4 21.825 5.85 21.6L7.8 20.55L8.925 21L9.6 23.175C9.75 23.625 10.2 24 10.725 24H13.275C13.8 24 14.25 23.625 14.4 23.175L15.075 21L16.2 20.55L18.15 21.6C18.6 21.825 19.2 21.75 19.575 21.375L21.375 19.575C21.75 19.2 21.825 18.6 21.6 18.15L20.55 16.2L21 15.075L23.175 14.4C23.625 14.25 24 13.8 24 13.275V10.725C24 10.2 23.625 9.675 23.1 9.525ZM22 13.05L19.8 13.875L19.725 14.25L19.05 15.825L18.825 16.2L19.8 18.675L18.5 19.8L16.2 18.825L15.825 19.05C15.3 19.35 14.775 19.575 14.25 19.725L13.875 19.8L13 22.3333H11L10.125 19.8L9.75 19.725L8.175 19.05L7.8 18.825L5.5 19.725L4.2 18.4567L5.175 16.2L4.95 15.825C4.65 15.3 4.425 14.775 4.275 14.25L4.2 13.875L1.79898 13.05V10.95L4.05 10.2L4.2 9.825C4.35 9.225 4.575 8.7 4.875 8.175L5.1 7.8L4.2 5.325L5.5 3.825L7.725 5.175L8.1 4.95C8.625 4.65 9.15 4.425 9.75 4.275L10.125 4.125L11 1.83334H13L13.875 4.125L14.25 4.275C14.775 4.425 15.3 4.65 15.825 4.95L16.2 5.175L18.5 4.125L19.8 5.55977L18.825 7.8L19.05 8.175C19.35 8.7 19.575 9.225 19.725 9.75L19.8 10.125L22 10.95V13.05Z"/>
</svg>
