<svg width="24" height="24" viewBox="0 0 24 24" fill="none" xmlns="http://www.w3.org/2000/svg">
<path fill-rule="evenodd" clip-rule="evenodd" d="M15.8799 0.221408C15.9634 0.292931 16.0319 0.380198 16.0816 0.478222C16.1313 0.576245 16.1612 0.683104 16.1696 0.792691C16.178 0.902277 16.1647 1.01244 16.1305 1.11689C16.0963 1.22134 16.0418 1.31802 15.9702 1.40142L13.3303 4.48193H16.5123C18.0369 4.48193 19.2671 4.48193 20.2341 4.61242C21.2379 4.74626 22.0833 5.03624 22.7547 5.70654C23.4261 6.37797 23.7139 7.22338 23.85 8.22716C23.9793 9.19415 23.9793 10.4243 23.9793 11.949V16.5329C23.9793 18.0576 23.9793 19.2878 23.85 20.2548C23.7139 21.2585 23.4261 22.104 22.7547 22.7754C22.0833 23.4468 21.2379 23.7346 20.2341 23.8706C19.2671 24 18.0369 24 16.5123 24H7.46706C5.94242 24 4.71222 24 3.74524 23.8706C2.74145 23.7346 1.89604 23.4468 1.22462 22.7754C0.553198 22.104 0.265446 21.2585 0.130492 20.2548C-1.66195e-08 19.2878 0 18.0576 0 16.5329V11.949C0 10.4243 -1.66195e-08 9.19415 0.130492 8.22716C0.26433 7.22338 0.554313 6.37797 1.22462 5.70654C1.89604 5.03512 2.74145 4.74737 3.74524 4.61242C4.71222 4.48193 5.94242 4.48193 7.46706 4.48193H10.6491L8.00799 1.40142C7.93225 1.31871 7.87392 1.22163 7.83646 1.11593C7.799 1.01023 7.78317 0.898084 7.78992 0.786148C7.79667 0.674212 7.82585 0.564775 7.87574 0.464345C7.92563 0.363915 7.99521 0.274541 8.08033 0.201537C8.16545 0.128533 8.26438 0.0733895 8.37124 0.0393851C8.4781 0.00538068 8.5907 -0.00679045 8.70236 0.00359524C8.81402 0.0139809 8.92245 0.0467114 9.0212 0.0998407C9.11996 0.15297 9.20702 0.225414 9.27722 0.312864L11.9897 3.47591L14.6999 0.312864C14.7714 0.229413 14.8587 0.160875 14.9567 0.111166C15.0547 0.0614579 15.1616 0.0315543 15.2712 0.0231644C15.3808 0.0147745 15.4909 0.0280629 15.5954 0.0622701C15.6998 0.0964772 15.7965 0.150932 15.8799 0.222524V0.221408ZM17.2874 6.1549V22.327C18.4541 22.3226 19.324 22.3047 20.011 22.2121C20.8297 22.1017 21.2624 21.8999 21.5714 21.592C21.8803 21.2831 22.0811 20.8503 22.1915 20.0306C22.3041 19.1885 22.3064 18.0721 22.3064 16.4716V12.0103C22.3064 10.4098 22.3041 9.29229 22.1915 8.45023C22.0811 7.63158 21.8792 7.19884 21.5714 6.8899C21.2624 6.58095 20.8297 6.3802 20.0099 6.26978C19.324 6.17721 18.4541 6.15825 17.2874 6.1549ZM15.6145 22.327V6.1549H7.5284C5.92792 6.1549 4.81037 6.15713 3.9683 6.26978C3.14966 6.3802 2.71692 6.58207 2.40797 6.8899C2.09903 7.19884 1.89827 7.63158 1.78786 8.45134C1.67521 9.29229 1.67298 10.4098 1.67298 12.0103V16.4716C1.67298 18.0721 1.67521 19.1885 1.78786 20.0317C1.89827 20.8503 2.10014 21.2831 2.40797 21.592C2.71692 21.901 3.14966 22.1017 3.96942 22.2121C4.81037 22.3248 5.92792 22.327 7.5284 22.327H15.6145Z"/>
<path d="M20.9123 16.4716C20.9123 16.1758 20.7948 15.8921 20.5856 15.683C20.3764 15.4738 20.0928 15.3563 19.797 15.3563C19.5012 15.3563 19.2175 15.4738 19.0083 15.683C18.7991 15.8921 18.6816 16.1758 18.6816 16.4716C18.6816 16.7674 18.7991 17.0511 19.0083 17.2603C19.2175 17.4694 19.5012 17.5869 19.797 17.5869C20.0928 17.5869 20.3764 17.4694 20.5856 17.2603C20.7948 17.0511 20.9123 16.7674 20.9123 16.4716ZM20.9123 12.0103C20.9123 11.7145 20.7948 11.4309 20.5856 11.2217C20.3764 11.0125 20.0928 10.895 19.797 10.895C19.5012 10.895 19.2175 11.0125 19.0083 11.2217C18.7991 11.4309 18.6816 11.7145 18.6816 12.0103C18.6816 12.3061 18.7991 12.5898 19.0083 12.799C19.2175 13.0081 19.5012 13.1257 19.797 13.1257C20.0928 13.1257 20.3764 13.0081 20.5856 12.799C20.7948 12.5898 20.9123 12.3061 20.9123 12.0103Z" />
</svg>
